nColumns=28
nRows=13
DataType=double
version=3
OpenSimVersion=4.1
endheader
time	1_ground_force_vx	1_ground_force_vy	1_ground_force_vz	1_ground_force_px	1_ground_force_py	1_ground_force_pz	1_ground_torque_x	1_ground_torque_y	1_ground_torque_z	2_ground_force_vx	2_ground_force_vy	2_ground_force_vz	2_ground_force_px	2_ground_force_py	2_ground_force_pz	2_ground_torque_x	2_ground_torque_y	2_ground_torque_z	3_ground_force_vx	3_ground_force_vy	3_ground_force_vz	3_ground_force_px	3_ground_force_py	3_ground_force_pz	3_ground_torque_x	3_ground_torque_y	3_ground_torque_z
0.2708333333333334	-30.53847007337373	698.0656478250377	61.03466314673779	0.3024788258316221	-0.005999999999991517	0.02827685418763562	-0.03947621181213237	0.9275106417613536	0.08046894100920446	-9.729351259952293e-05	-0.0003719473182873427	0.0001213576699688986	-0.3000018748129865	-0.005999999999991506	0.2000001555041993	1.08906303321981e-05	2.432789983507791e-05	-7.585794780983756e-06	-3.835353434829941e-08	-5.430589202848134e-08	-6.649996742135994e-09	0.9000000000746787	-0.005999999999991506	0.1999999923640699	1.14585694958811e-10	-8.855561772831442e-11	-9.542912611383023e-12
0.2716666666666667	-30.20582634053554	697.352512379179	60.82569988917533	0.3025544683368728	-0.005999999999991648	0.02829980980989563	-0.03957505246971534	0.9378580513697604	0.08119775731277892	-5.71907726280458e-05	-0.0004701911561640693	0.0002068719977032238	-0.3000019369896801	-0.005999999999991638	0.1999999137255407	9.975431813003704e-06	2.877039592894423e-05	-1.168252139724435e-05	-3.9181567343448e-08	-5.344383694491332e-08	-8.168087556453037e-09	0.9000000000257006	-0.005999999999991638	0.1999999923580005	1.106062585225097e-10	-1.384948304112431e-10	-1.564900252878845e-11
0.2725000000000001	-29.87691256529202	696.645454432817	60.62017575205261	0.3026359610237116	-0.005999999999991771	0.02832308743348456	-0.03971433703828388	0.9489958867754182	0.08200165377485286	-2.028964644265804e-05	-0.0005464130390625882	0.0002779199054938635	-0.3000019471170088	-0.00599999999999176	0.1999997013008862	8.931866869073538e-06	3.204263104777559e-05	-1.504504015788297e-05	-3.908883904011793e-08	-5.107223472584633e-08	-9.665580500670841e-09	0.8999999999697853	-0.00599999999999176	0.1999999923514751	1.032231091040453e-10	-1.911666368764732e-10	-2.212285902547699e-11
0.2733333333333334	-29.55114494853269	695.9444833818196	60.41865067767145	0.3027234795114553	-0.005999999999991879	0.02834700213013978	-0.03988312680042481	0.9607483097923121	0.08286547192055638	1.291423859837042e-05	-0.0006013298923519787	0.0003344850002507988	-0.3000019108395398	-0.005999999999991869	0.1999995198493583	7.798681238053572e-06	3.420078373014847e-05	-1.767817257278868e-05	-3.796051568245656e-08	-4.706095408495777e-08	-1.110063113857685e-08	0.8999999999075131	-0.005999999999991869	0.1999999923446066	9.219614495871142e-11	-2.455395025357515e-10	-2.884176013635019e-11
0.2741666666666667	-29.22797328670236	695.249753437859	60.22165876646557	0.3028171021764275	-0.005999999999991968	0.02837191602785722	-0.04007069235723375	0.9729398260744013	0.08377404814960129	4.206714068012915e-05	-0.0006360726210328604	0.0003768892121562846	-0.3000018342422898	-0.005999999999991958	0.1999993700875902	6.612325784578815e-06	3.532056908849562e-05	-1.960314092737785e-05	-3.569426253664757e-08	-4.130623626130058e-08	-1.242770142945124e-08	0.8999999998397044	-0.005999999999991958	0.1999999923375313	7.735012255947509e-11	-3.004059701024971e-10	-3.566093676487557e-11
0.2750000000000001	-28.90688722849598	694.5615630988826	60.02968732521407	0.3029168088073019	-0.005999999999992033	0.02839822256865732	-0.04026668175065093	0.985398697657387	0.08471247530624859	6.694939346927154e-05	-0.0006521130702112288	0.0004057470962398829	-0.3000017236595987	-0.005999999999992021	0.199999251915028	5.40636890060815e-06	3.549327278058653e-05	-2.085522249675097e-05	-3.220451596366028e-08	-3.373677123212208e-08	-1.359828203203383e-08	0.8999999997674296	-0.005999999999992021	0.1999999923304082	5.858750638370693e-11	-3.543918799940194e-10	-4.241455658202625e-11
0.2758333333333334	-28.58742090164404	693.8803515250235	59.84315781006165	0.303022482043991	-0.005999999999992065	0.02842632721070373	-0.04046129166903279	0.9979605886220496	0.08566638824256455	8.74653634220346e-05	-0.0006511913156764161	0.0004219184979220269	-0.3000015854998022	-0.005999999999992055	0.1999991645085814	4.211042252014122e-06	3.482187126610239e-05	-2.148134222211156e-05	-2.742686030056533e-08	-2.431969788113828e-08	-1.456178441871773e-08	0.8999999996920129	-0.005999999999992055	0.1999999923234176	3.590091989858228e-11	-4.059711311291204e-10	-4.891738490095959e-11
0.2766666666666667	-28.26915625355307	693.2066921032113	59.66240939008397	0.3031339114886766	-0.005999999999992068	0.02845662570281979	-0.04064543188888473	1.010472196861208	0.0866222530983829	0.0001036316599921903	-0.0006352449365247191	0.0004264608670478028	-0.3000014260879912	-0.005999999999992057	0.1999991064233686	3.052915361189068e-06	3.341731873752559e-05	-2.153766672958728e-05	-2.132240826216825e-08	-1.306636128576607e-08	-1.526660106035262e-08	0.8999999996150296	-0.005999999999992057	0.1999999923167596	9.38482084936409e-12	-4.534863011075308e-10	-5.496716524245766e-11
0.2775000000000001	-27.95172538683983	692.5412834989777	59.4876856660921	0.3032508003398444	-0.005999999999992036	0.02848948149969594	-0.04081087319239621	1.022794624690258	0.0875676396075124	0.0001155640700097672	-0.000606341689105921	0.0004205823679896694	-0.300001251528468	-0.005999999999992025	0.1999990756965264	1.954692031745793e-06	3.139506816090984e-05	-2.108725543699014e-05	-1.388207058307001e-08	-3.764540091739011e-11	-1.566132731851335e-08	0.8999999995382965	-0.005999999999992025	0.1999999923106512	-2.075400372784208e-11	-4.951753319171894e-10	-6.034774889646769e-11
0.2783333333333334	-27.63481209313037	691.8849385895461	59.31912492816291	0.3033727743448708	-0.005999999999991972	0.02852520406410623	-0.04095037117855181	1.034806291262381	0.08849145980397545	0.000123463663904112	-0.0005666167622158458	0.0004055967852638778	-0.3000010675878703	-0.005999999999991961	0.1999990699513274	9.351195807696518e-07	2.88718808050891e-05	-2.019781687032002e-05	-5.130588967220422e-09	1.465131260517678e-08	-1.569613363639795e-08	0.8999999994638548	-0.005999999999991961	0.1999999923053225	-5.418754795896022e-11	-5.29204354705064e-10	-6.483298690007812e-11
0.2791666666666667	-27.31815275185514	691.2385717836078	59.15675422513708	0.3034993927469143	-0.005999999999991879	0.02856402970935353	-0.04105776134927166	1.04640525749931	0.08938416222416543	0.0001276024901127074	-0.0005182155537307136	0.0003828810694861356	-0.3000008795993424	-0.005999999999991869	0.1999990864991495	9.000243876433114e-09	2.596296579254431e-05	-1.893961043132726e-05	4.869803426730181e-09	3.082722858643248e-08	-1.532427123005089e-08	0.8999999993939456	-0.005999999999991869	0.1999999923010125	-9.045974034094677e-11	-5.537065757224765e-10	-6.81913795927525e-11
0.28	-27.00153673683743	690.603185288129	59.00048743667075	0.3036301606988071	-0.005999999999991764	0.02860610633578818	-0.04112802349676024	1.057510894243275	0.09023787584710866	0.0001283092365518487	-0.0004632426743900325	0.0003538362117123736	-0.3000006923876036	-0.005999999999991753	0.1999991224371735	-8.127070540291865e-07	2.277947884599178e-05	-1.738352593229314e-05	1.601623727170849e-08	4.825580471109992e-08	-1.450368884573868e-08	0.8999999993309763	-0.005999999999991753	0.199999992297964	-1.289820791856769e-10	-5.668269768866716e-10	-7.019145845145754e-11
0.2808333333333334	-26.68480641025579	689.9798548734734	58.85012745148347	0.303764542416942	-0.005999999999991631	0.02865148297129555	-0.04115731504385243	1.068064861531341	0.09104650120533306	0.0001259551959900507	-0.0004037176600400558	0.0003198519791567758	-0.300000510214293	-0.00599999999999162	0.1999991747400201	-1.522707135012206e-06	1.942639776399865e-05	-1.559936543352913e-05	2.8162726179588e-08	6.664009569289703e-08	-1.319873238326709e-08	0.8999999992774784	-0.00599999999999162	0.1999999922964176	-1.690321807338973e-10	-5.667724007081391e-10	-7.060785250727628e-11
